<?xml version="1.0" encoding="UTF-8" standalone="no"?>
<!-- Created with Inkscape (http://www.inkscape.org/) -->
<svg xmlns:dc="http://purl.org/dc/elements/1.1/" xmlns:cc="http://web.resource.org/cc/" xmlns:rdf="http://www.w3.org/1999/02/22-rdf-syntax-ns#" xmlns:svg="http://www.w3.org/2000/svg" xmlns="http://www.w3.org/2000/svg" xmlns:xlink="http://www.w3.org/1999/xlink" xmlns:sodipodi="http://sodipodi.sourceforge.net/DTD/sodipodi-0.dtd" xmlns:inkscape="http://www.inkscape.org/namespaces/inkscape" version="1.0" width="391.60999" height="434.72" id="svg1403" sodipodi:version="0.32" inkscape:version="0.44" sodipodi:docname="Meuble_blé_tigé_feuillé.svg" sodipodi:docbase="C:\Documents and Settings\Henry SALOME\Mes documents\Mes images\Blasons\Inkscape\Pièces &amp; meubles">
  <metadata id="metadata53">
    <rdf:RDF>
      <cc:Work rdf:about="">
        <dc:format>image/svg+xml</dc:format>
        <dc:type rdf:resource="http://purl.org/dc/dcmitype/StillImage"/>
      </cc:Work>
    </rdf:RDF>
  </metadata>
  <sodipodi:namedview inkscape:window-height="708" inkscape:window-width="1024" inkscape:pageshadow="2" inkscape:pageopacity="0.0" guidetolerance="10.0" gridtolerance="10.0" objecttolerance="10.0" borderopacity="1.0" bordercolor="#666666" pagecolor="#ffffff" id="base" inkscape:zoom="0.70139535" inkscape:cx="225" inkscape:cy="198.81279" inkscape:window-x="-4" inkscape:window-y="-4" inkscape:current-layer="g8763" width="391.61px" height="434.72px" showborder="true"/>
  <defs id="defs1405">
    <linearGradient x1="107.7496" y1="191.96266" x2="139.39598" y2="166.38455" id="linearGradient1800" xlink:href="#linearGradient1732" gradientUnits="userSpaceOnUse" gradientTransform="translate(-1.428571e-5,-5.714286e-5)"/>
    <linearGradient x1="82.14286" y1="264.16666" x2="113.69048" y2="258.41269" id="linearGradient1590" xlink:href="#linearGradient1732" gradientUnits="userSpaceOnUse" gradientTransform="translate(-1.428571e-5,-5.714286e-5)"/>
    <linearGradient x1="84.126984" y1="260.59525" x2="115.67461" y2="257.61905" id="linearGradient1598" xlink:href="#linearGradient1732" gradientUnits="userSpaceOnUse" gradientTransform="translate(-1.428571e-5,-5.714286e-5)"/>
    <linearGradient x1="88.492065" y1="297.10318" x2="118.05556" y2="280.63492" id="linearGradient1606" xlink:href="#linearGradient1732" gradientUnits="userSpaceOnUse" gradientTransform="translate(-1.428571e-5,-5.714286e-5)"/>
    <linearGradient x1="118.45238" y1="312.77777" x2="136.32533" y2="294.72223" id="linearGradient1614" xlink:href="#linearGradient1732" gradientUnits="userSpaceOnUse" gradientTransform="translate(-1.428571e-5,-5.714286e-5)"/>
    <linearGradient x1="131.15079" y1="395.31747" x2="166.66667" y2="415.35715" id="linearGradient1622" xlink:href="#linearGradient1732" gradientUnits="userSpaceOnUse" gradientTransform="translate(-1.428571e-5,-5.714286e-5)"/>
    <linearGradient x1="107.14286" y1="225.27779" x2="130.35715" y2="242.34128" id="linearGradient1582" xlink:href="#linearGradient1732" gradientUnits="userSpaceOnUse" gradientTransform="translate(-1.428571e-5,-5.714286e-5)"/>
    <linearGradient x1="143.65079" y1="488.96826" x2="163.88889" y2="454.04761" id="linearGradient1642" xlink:href="#linearGradient1732" gradientUnits="userSpaceOnUse" gradientTransform="translate(-1.428571e-5,-5.714286e-5)"/>
    <linearGradient x1="186.50793" y1="491.74603" x2="186.50793" y2="458.41269" id="linearGradient1650" xlink:href="#linearGradient1732" gradientUnits="userSpaceOnUse" gradientTransform="translate(-1.428571e-5,-5.714286e-5)"/>
    <linearGradient x1="292.85715" y1="493.73016" x2="321.82541" y2="513.17462" id="linearGradient1658" xlink:href="#linearGradient1732" gradientUnits="userSpaceOnUse" gradientTransform="translate(-1.428571e-5,-5.714286e-5)"/>
    <linearGradient x1="266.26984" y1="534.20636" x2="312.30157" y2="534.60315" id="linearGradient1666" xlink:href="#linearGradient1732" gradientUnits="userSpaceOnUse" gradientTransform="translate(-1.428571e-5,-5.714286e-5)"/>
    <linearGradient x1="300" y1="566.74603" x2="319.15079" y2="547.59521" id="linearGradient1674" xlink:href="#linearGradient1732" gradientUnits="userSpaceOnUse" gradientTransform="translate(-1.428571e-5,-5.714286e-5)"/>
    <linearGradient x1="337.30157" y1="571.11108" x2="341.26984" y2="546.90479" id="linearGradient1682" xlink:href="#linearGradient1732" gradientUnits="userSpaceOnUse" gradientTransform="translate(-1.428571e-5,-5.714286e-5)"/>
    <linearGradient x1="241.1429" y1="51.4207" x2="243.12413" y2="48.302807" id="linearGradient1397" xlink:href="#linearGradient1732" gradientUnits="userSpaceOnUse" gradientTransform="translate(75.92347,47.10196)"/>
    <linearGradient id="linearGradient1732">
      <stop style="stop-color:#ffffff;stop-opacity:1" offset="0" id="stop1734"/>
      <stop style="stop-color:#ffffff;stop-opacity:1" offset="1" id="stop1736"/>
    </linearGradient>
    <linearGradient x1="177.33789" y1="217.77766" x2="211.82967" y2="213.55009" id="linearGradient1549" xlink:href="#linearGradient1732" gradientUnits="userSpaceOnUse" gradientTransform="translate(-1.428571e-5,-5.714286e-5)"/>
    <linearGradient x1="124.58548" y1="115.64002" x2="157.20032" y2="137.97067" id="linearGradient1551" xlink:href="#linearGradient1732" gradientUnits="userSpaceOnUse" gradientTransform="translate(-1.428571e-5,-5.714286e-5)"/>
    <linearGradient x1="87.546555" y1="139.21025" x2="124.361" y2="137.97067" id="linearGradient1553" xlink:href="#linearGradient1732" gradientUnits="userSpaceOnUse" gradientTransform="translate(-1.428571e-5,-5.714286e-5)"/>
    <linearGradient x1="112.23917" y1="75.233917" x2="137.60522" y2="90.41172" id="linearGradient1555" xlink:href="#linearGradient1732" gradientUnits="userSpaceOnUse" gradientTransform="translate(-1.428571e-5,-5.714286e-5)"/>
    <linearGradient x1="179.58267" y1="75.233917" x2="193.02094" y2="101.81393" id="linearGradient1557" xlink:href="#linearGradient1732" gradientUnits="userSpaceOnUse" gradientTransform="translate(-1.428571e-5,-5.714286e-5)"/>
    <linearGradient x1="270.4964" y1="176.24918" x2="296.92871" y2="185.71556" id="linearGradient1559" xlink:href="#linearGradient1732" gradientUnits="userSpaceOnUse" gradientTransform="translate(-1.428571e-5,-5.714286e-5)"/>
    <linearGradient x1="94.280907" y1="496.1308" x2="124.13653" y2="467.62207" id="linearGradient1561" xlink:href="#linearGradient1732" gradientUnits="userSpaceOnUse" gradientTransform="translate(-1.428571e-5,-5.714286e-5)"/>
    <linearGradient x1="171" y1="92.5" x2="180" y2="96.5" id="linearGradient2433" xlink:href="#linearGradient1732" gradientUnits="userSpaceOnUse"/>
    <linearGradient inkscape:collect="always" xlink:href="#linearGradient1732" id="linearGradient4799" gradientUnits="userSpaceOnUse" gradientTransform="matrix(0.209313,0,0,0.209313,-225.2373,175.99)" x1="3.5061214" y1="272.36218" x2="442.54803" y2="272.36218"/>
    <linearGradient inkscape:collect="always" xlink:href="#linearGradient1732" id="linearGradient4801" gradientUnits="userSpaceOnUse" gradientTransform="matrix(0.209313,0,0,0.209313,-225.2373,175.99)" x1="3.5061214" y1="272.36218" x2="442.54803" y2="272.36218"/>
    <linearGradient inkscape:collect="always" xlink:href="#linearGradient1732" id="linearGradient4803" gradientUnits="userSpaceOnUse" gradientTransform="matrix(0.209313,0,0,0.209313,-225.2373,175.99)" x1="3.5061214" y1="272.36218" x2="442.54803" y2="272.36218"/>
    <linearGradient inkscape:collect="always" xlink:href="#linearGradient1732" id="linearGradient4805" gradientUnits="userSpaceOnUse" gradientTransform="matrix(0.209313,0,0,0.209313,-225.2373,175.99)" x1="3.5061214" y1="272.36218" x2="442.54803" y2="272.36218"/>
    <linearGradient inkscape:collect="always" xlink:href="#linearGradient1732" id="linearGradient4807" gradientUnits="userSpaceOnUse" gradientTransform="matrix(0.209313,0,0,0.209313,-225.2373,175.99)" x1="3.5061214" y1="272.36218" x2="442.54803" y2="272.36218"/>
    <linearGradient inkscape:collect="always" xlink:href="#linearGradient1732" id="linearGradient4809" gradientUnits="userSpaceOnUse" gradientTransform="matrix(0.209313,0,0,0.209313,-225.2373,175.99)" x1="3.5061214" y1="272.36218" x2="442.54803" y2="272.36218"/>
    <linearGradient inkscape:collect="always" xlink:href="#linearGradient1732" id="linearGradient4811" gradientUnits="userSpaceOnUse" gradientTransform="matrix(0.209313,0,0,0.209313,-225.2373,175.99)" x1="3.5061214" y1="272.36218" x2="442.54803" y2="272.36218"/>
    <linearGradient inkscape:collect="always" xlink:href="#linearGradient1732" id="linearGradient4813" gradientUnits="userSpaceOnUse" gradientTransform="matrix(0.209313,0,0,0.209313,-225.2373,175.99)" x1="3.5061214" y1="272.36218" x2="442.54803" y2="272.36218"/>
    <linearGradient inkscape:collect="always" xlink:href="#linearGradient1732" id="linearGradient4815" gradientUnits="userSpaceOnUse" gradientTransform="matrix(0.209313,0,0,0.209313,-225.2373,175.99)" x1="3.5061214" y1="272.36218" x2="442.54803" y2="272.36218"/>
    <linearGradient inkscape:collect="always" xlink:href="#linearGradient1732" id="linearGradient4817" gradientUnits="userSpaceOnUse" gradientTransform="matrix(0.209313,0,0,0.209313,-225.2373,175.99)" x1="3.5061214" y1="272.36218" x2="442.54803" y2="272.36218"/>
    <linearGradient inkscape:collect="always" xlink:href="#linearGradient1732" id="linearGradient4819" gradientUnits="userSpaceOnUse" gradientTransform="matrix(0.209313,0,0,0.209313,-225.2373,175.99)" x1="3.5061214" y1="272.36218" x2="442.54803" y2="272.36218"/>
    <linearGradient inkscape:collect="always" xlink:href="#linearGradient1732" id="linearGradient4821" gradientUnits="userSpaceOnUse" gradientTransform="matrix(0.209313,0,0,0.209313,-225.2373,175.99)" x1="3.5061214" y1="272.36218" x2="442.54803" y2="272.36218"/>
    <linearGradient inkscape:collect="always" xlink:href="#linearGradient1732" id="linearGradient4823" gradientUnits="userSpaceOnUse" gradientTransform="matrix(0.209313,0,0,0.209313,-225.2373,175.99)" x1="3.5061214" y1="272.36218" x2="442.54803" y2="272.36218"/>
    <linearGradient inkscape:collect="always" xlink:href="#linearGradient1732" id="linearGradient4825" gradientUnits="userSpaceOnUse" gradientTransform="matrix(0.209313,0,0,0.209313,-225.2373,175.99)" x1="3.5061214" y1="272.36218" x2="442.54803" y2="272.36218"/>
    <linearGradient inkscape:collect="always" xlink:href="#linearGradient1732" id="linearGradient4827" gradientUnits="userSpaceOnUse" gradientTransform="matrix(0.209313,0,0,0.209313,-225.2373,175.99)" x1="3.5061214" y1="272.36218" x2="442.54803" y2="272.36218"/>
    <linearGradient inkscape:collect="always" xlink:href="#linearGradient1732" id="linearGradient4829" gradientUnits="userSpaceOnUse" gradientTransform="matrix(0.209313,0,0,0.209313,-225.2373,175.99)" x1="3.5061214" y1="272.36218" x2="442.54803" y2="272.36218"/>
    <linearGradient inkscape:collect="always" xlink:href="#linearGradient1732" id="linearGradient4831" gradientUnits="userSpaceOnUse" gradientTransform="matrix(0.209313,0,0,0.209313,-225.2373,175.99)" x1="3.5061214" y1="272.36218" x2="442.54803" y2="272.36218"/>
    <linearGradient inkscape:collect="always" xlink:href="#linearGradient1732" id="linearGradient4833" gradientUnits="userSpaceOnUse" gradientTransform="matrix(0.209313,0,0,0.209313,-225.2373,175.99)" x1="3.5061214" y1="272.36218" x2="442.54803" y2="272.36218"/>
    <linearGradient inkscape:collect="always" xlink:href="#linearGradient1732" id="linearGradient4835" gradientUnits="userSpaceOnUse" gradientTransform="matrix(0.209313,0,0,0.209313,-225.2373,175.99)" x1="3.5061214" y1="272.36218" x2="442.54803" y2="272.36218"/>
    <linearGradient inkscape:collect="always" xlink:href="#linearGradient1732" id="linearGradient4837" gradientUnits="userSpaceOnUse" gradientTransform="matrix(0.209313,0,0,0.209313,-225.2373,175.99)" x1="3.5061214" y1="272.36218" x2="442.54803" y2="272.36218"/>
    <linearGradient inkscape:collect="always" xlink:href="#linearGradient1732" id="linearGradient4839" gradientUnits="userSpaceOnUse" gradientTransform="matrix(0.209313,0,0,0.209313,-225.2373,175.99)" x1="3.5061214" y1="272.36218" x2="442.54803" y2="272.36218"/>
    <linearGradient inkscape:collect="always" xlink:href="#linearGradient1732" id="linearGradient4841" gradientUnits="userSpaceOnUse" gradientTransform="matrix(0.209313,0,0,0.209313,-180.1744,206.9244)" x1="3.5061214" y1="272.36218" x2="442.54803" y2="272.36218"/>
  </defs>
  <g id="g8763" style="opacity:1;fill:#fcef3c;fill-opacity:1;stroke:black;stroke-width:3;stroke-miterlimit:4;stroke-dasharray:none;stroke-opacity:1;display:inline" transform="matrix(-0.969584,0,0,0.969584,1275.873,-63.79865)">
    <g id="g2288" transform="matrix(0.857122,-0.757829,0.757829,0.857122,-60.66785,913.1328)">
      <path style="fill:#fcef3c;fill-opacity:1;fill-rule:evenodd;stroke:black;stroke-width:3;stroke-linecap:butt;stroke-linejoin:miter;stroke-miterlimit:4;stroke-dasharray:none;stroke-opacity:1" d="M 1017.4603,390.15873 C 1056.0119,334.82077 1062.5408,305.8837 1073.0159,271.11111 C 1035.3341,287.38109 1020.1301,321.0632 993.6508,358.4127 C 1012.3942,311.45317 1037.9204,252.96986 1077.7778,231.42857 C 1088.6813,232.63749 1094.916,239.21563 1101.5873,248.88889 C 1100.5292,270.38107 1079.6297,314.74206 1057.9365,346.1111 L 1115.0794,283.01587 L 1117.8571,285.39682 L 1057.9365,352.85714 C 1078.5526,339.87539 1100.2835,328.00835 1123.0159,317.14286 C 1134.7878,321.82551 1140.0671,327.80668 1141.2698,334.60317 C 1102.7534,396.08874 1078.0938,392.30171 1042.0635,415.55555 C 1064.3118,393.31475 1092.1154,382.18411 1108.7302,344.92063 C 1068.9978,356.75843 1048.7892,374.46874 1019.0476,394.92063 L 1017.4603,390.15873 z " id="path8765" sodipodi:nodetypes="ccccccccccccccc"/>
      <g style="fill:#fcef3c;fill-opacity:1;stroke:black;stroke-width:3;stroke-miterlimit:4;stroke-dasharray:none;stroke-opacity:1" id="g8767">
        <path sodipodi:nodetypes="ccc" id="path8769" d="M 1236.4899,151.03623 C 1216.9981,173.12165 1225.1614,189.52267 1202.9382,188.39062 C 1201.3873,165.87634 1217.3157,172.36623 1236.4899,151.03623 z " style="fill:#fcef3c;fill-opacity:1;fill-rule:evenodd;stroke:black;stroke-width:3;stroke-linecap:butt;stroke-linejoin:miter;stroke-miterlimit:4;stroke-dasharray:none;stroke-opacity:1;display:inline"/>
        <g style="fill:#fcef3c;fill-opacity:1;stroke:black;stroke-width:3;stroke-miterlimit:4;stroke-dasharray:none;stroke-opacity:1" id="g8771">
          <path style="fill:#fcef3c;fill-opacity:1;fill-rule:evenodd;stroke:black;stroke-width:3;stroke-linecap:butt;stroke-linejoin:miter;stroke-miterlimit:4;stroke-dasharray:none;stroke-opacity:1;display:inline" d="M 1210.4388,152.46032 C 1197.1937,179.70899 1215.8935,177.59259 1188.2165,204.04761 C 1187.0827,200.67077 1191.1316,194.46122 1190.7673,191.70645 C 1190.9047,170.54669 1203.8155,166.49048 1210.4388,152.46032 z " id="path8773" sodipodi:nodetypes="cccc"/>
          <path style="fill:#fcef3c;fill-opacity:1;fill-rule:evenodd;stroke:black;stroke-width:3;stroke-linecap:butt;stroke-linejoin:miter;stroke-miterlimit:4;stroke-dasharray:none;stroke-opacity:1;display:inline" d="M 1185.0419,167.53968 C 1182.511,183.67724 1200.8142,194.65608 1175.5181,217.93651 C 1176.4283,213.84166 1177.9298,207.93979 1176.9791,205.8197 C 1174.1911,194.47551 1184.7181,181.95933 1185.0419,167.53968 z " id="path8775" sodipodi:nodetypes="cccc"/>
          <path style="fill:#fcef3c;fill-opacity:1;fill-rule:evenodd;stroke:black;stroke-width:3;stroke-linecap:butt;stroke-linejoin:miter;stroke-miterlimit:4;stroke-dasharray:none;stroke-opacity:1;display:inline" d="M 1172.578,181.23016 C 1170.0471,197.36772 1188.3503,208.34656 1163.0542,231.62699 C 1163.9644,227.53214 1165.4659,221.63027 1164.5152,219.51018 C 1161.7272,208.16599 1172.2542,195.64981 1172.578,181.23016 z " id="path8777" sodipodi:nodetypes="cccc"/>
          <path style="fill:#fcef3c;fill-opacity:1;fill-rule:evenodd;stroke:black;stroke-width:3;stroke-linecap:butt;stroke-linejoin:miter;stroke-miterlimit:4;stroke-dasharray:none;stroke-opacity:1;display:inline" d="M 1160.6732,194.72222 C 1158.1423,210.85978 1176.4455,221.83862 1151.1494,245.11905 C 1152.0596,241.0242 1153.5611,235.12233 1152.6104,233.00224 C 1149.8224,221.65805 1160.3494,209.14187 1160.6732,194.72222 z " id="path8779" sodipodi:nodetypes="cccc"/>
          <path style="fill:#fcef3c;fill-opacity:1;fill-rule:evenodd;stroke:black;stroke-width:3;stroke-linecap:butt;stroke-linejoin:miter;stroke-miterlimit:4;stroke-dasharray:none;stroke-opacity:1;display:inline" d="M 1148.3716,208.21427 C 1145.8407,224.35183 1164.1439,235.33067 1138.8478,258.6111 C 1139.758,254.51625 1141.2595,248.61438 1140.3088,246.49429 C 1137.5208,235.1501 1148.0478,222.63392 1148.3716,208.21427 z " id="path8781" sodipodi:nodetypes="cccc"/>
          <path style="fill:#fcef3c;fill-opacity:1;fill-rule:evenodd;stroke:black;stroke-width:3;stroke-linecap:butt;stroke-linejoin:miter;stroke-miterlimit:4;stroke-dasharray:none;stroke-opacity:1;display:inline" d="M 1136.4669,221.70634 C 1133.936,237.8439 1152.2392,248.82274 1126.9431,272.10317 C 1127.8533,268.00832 1129.3548,262.10645 1128.4041,259.98636 C 1125.6161,248.64217 1136.1431,236.12599 1136.4669,221.70634 z " id="path8783" sodipodi:nodetypes="cccc"/>
          <path style="fill:#fcef3c;fill-opacity:1;fill-rule:evenodd;stroke:black;stroke-width:3;stroke-linecap:butt;stroke-linejoin:miter;stroke-miterlimit:4;stroke-dasharray:none;stroke-opacity:1;display:inline" d="M 1124.1653,235.19841 C 1121.6344,251.33597 1139.9376,262.31481 1114.6415,285.59524 C 1115.5517,281.50039 1117.0532,275.59852 1116.1025,273.47843 C 1113.3145,262.13424 1123.8415,249.61806 1124.1653,235.19841 z " id="path8785" sodipodi:nodetypes="cccc"/>
        </g>
        <g transform="matrix(-0.104529,-0.994523,-0.994523,0.104529,1516.331,1364.704)" id="g8787" style="fill:#fcef3c;fill-opacity:1;stroke:black;stroke-width:2.99999642;stroke-miterlimit:4;stroke-dasharray:none;stroke-opacity:1;display:inline">
          <path style="fill:#fcef3c;fill-opacity:1;fill-rule:evenodd;stroke:black;stroke-width:2.99999642;stroke-linecap:butt;stroke-linejoin:miter;stroke-miterlimit:4;stroke-dasharray:none;stroke-opacity:1;display:inline" d="M 1210.4388,152.46032 C 1197.1937,179.70899 1215.8935,177.59259 1188.2165,204.04761 C 1187.0827,200.67077 1191.1316,194.46122 1190.7673,191.70645 C 1190.9047,170.54669 1203.8155,166.49048 1210.4388,152.46032 z " id="path8789" sodipodi:nodetypes="cccc"/>
          <path style="fill:#fcef3c;fill-opacity:1;fill-rule:evenodd;stroke:black;stroke-width:2.99999642;stroke-linecap:butt;stroke-linejoin:miter;stroke-miterlimit:4;stroke-dasharray:none;stroke-opacity:1;display:inline" d="M 1185.0419,167.53968 C 1182.511,183.67724 1200.8142,194.65608 1175.5181,217.93651 C 1176.4283,213.84166 1177.9298,207.93979 1176.9791,205.8197 C 1174.1911,194.47551 1184.7181,181.95933 1185.0419,167.53968 z " id="path8791" sodipodi:nodetypes="cccc"/>
          <path style="fill:#fcef3c;fill-opacity:1;fill-rule:evenodd;stroke:black;stroke-width:2.99999642;stroke-linecap:butt;stroke-linejoin:miter;stroke-miterlimit:4;stroke-dasharray:none;stroke-opacity:1;display:inline" d="M 1172.578,181.23016 C 1170.0471,197.36772 1188.3503,208.34656 1163.0542,231.62699 C 1163.9644,227.53214 1165.4659,221.63027 1164.5152,219.51018 C 1161.7272,208.16599 1172.2542,195.64981 1172.578,181.23016 z " id="path8793" sodipodi:nodetypes="cccc"/>
          <path style="fill:#fcef3c;fill-opacity:1;fill-rule:evenodd;stroke:black;stroke-width:2.99999642;stroke-linecap:butt;stroke-linejoin:miter;stroke-miterlimit:4;stroke-dasharray:none;stroke-opacity:1;display:inline" d="M 1160.6732,194.72222 C 1158.1423,210.85978 1176.4455,221.83862 1151.1494,245.11905 C 1152.0596,241.0242 1153.5611,235.12233 1152.6104,233.00224 C 1149.8224,221.65805 1160.3494,209.14187 1160.6732,194.72222 z " id="path8795" sodipodi:nodetypes="cccc"/>
          <path style="fill:#fcef3c;fill-opacity:1;fill-rule:evenodd;stroke:black;stroke-width:2.99999642;stroke-linecap:butt;stroke-linejoin:miter;stroke-miterlimit:4;stroke-dasharray:none;stroke-opacity:1;display:inline" d="M 1148.3716,208.21427 C 1145.8407,224.35183 1164.1439,235.33067 1138.8478,258.6111 C 1139.758,254.51625 1141.2595,248.61438 1140.3088,246.49429 C 1137.5208,235.1501 1148.0478,222.63392 1148.3716,208.21427 z " id="path8797" sodipodi:nodetypes="cccc"/>
          <path style="fill:#fcef3c;fill-opacity:1;fill-rule:evenodd;stroke:black;stroke-width:2.99999642;stroke-linecap:butt;stroke-linejoin:miter;stroke-miterlimit:4;stroke-dasharray:none;stroke-opacity:1;display:inline" d="M 1136.4669,221.70634 C 1133.936,237.8439 1152.2392,248.82274 1126.9431,272.10317 C 1127.8533,268.00832 1129.3548,262.10645 1128.4041,259.98636 C 1125.6161,248.64217 1136.1431,236.12599 1136.4669,221.70634 z " id="path8799" sodipodi:nodetypes="cccc"/>
          <path style="fill:#fcef3c;fill-opacity:1;fill-rule:evenodd;stroke:black;stroke-width:2.99999642;stroke-linecap:butt;stroke-linejoin:miter;stroke-miterlimit:4;stroke-dasharray:none;stroke-opacity:1;display:inline" d="M 1124.1653,235.19841 C 1121.6344,251.33597 1139.9376,262.31481 1114.6415,285.59524 C 1115.5517,281.50039 1117.0532,275.59852 1116.1025,273.47843 C 1113.3145,262.13424 1123.8415,249.61806 1124.1653,235.19841 z " id="path8801" sodipodi:nodetypes="cccc"/>
        </g>
      </g>
      <path style="fill:#fcef3c;fill-opacity:1;fill-rule:evenodd;stroke:black;stroke-width:3;stroke-linecap:butt;stroke-linejoin:miter;stroke-miterlimit:4;stroke-dasharray:none;stroke-opacity:1" d="M 1072.2222,271.90476 C 1076.271,257.50403 1077.2639,244.78329 1078.1746,231.42857" id="path8803" sodipodi:nodetypes="cc"/>
      <path style="fill:#fcef3c;fill-opacity:1;fill-rule:evenodd;stroke:black;stroke-width:3;stroke-linecap:butt;stroke-linejoin:miter;stroke-miterlimit:4;stroke-dasharray:none;stroke-opacity:1" d="M 1076.1905,248.88889 C 1062.7023,258.14815 1053.0652,267.40741 1044.8413,276.66667" id="path8805" sodipodi:nodetypes="cc"/>
      <path style="fill:#fcef3c;fill-opacity:1;fill-rule:evenodd;stroke:black;stroke-width:3;stroke-linecap:butt;stroke-linejoin:miter;stroke-miterlimit:4;stroke-dasharray:none;stroke-opacity:1" d="M 1078.9683,284.60317 C 1067.9904,321.25852 1050.0228,349.92154 1026.5873,379.84126" id="path8807" sodipodi:nodetypes="cc"/>
      <path style="fill:#fcef3c;fill-opacity:1;fill-rule:evenodd;stroke:black;stroke-width:3;stroke-linecap:butt;stroke-linejoin:miter;stroke-miterlimit:4;stroke-dasharray:none;stroke-opacity:1" d="M 1060.3175,350.87301 L 1017.4603,390.15873 L 1017.4603,390.15873" id="path8809"/>
      <path style="fill:#fcef3c;fill-opacity:1;fill-rule:evenodd;stroke:black;stroke-width:3;stroke-linecap:butt;stroke-linejoin:miter;stroke-miterlimit:4;stroke-dasharray:none;stroke-opacity:1" d="M 1059.5238,344.12698 L 1027.7777,381.42857" id="path8811" sodipodi:nodetypes="cc"/>
      <path style="fill:#fcef3c;fill-opacity:1;fill-rule:evenodd;stroke:black;stroke-width:3;stroke-linecap:butt;stroke-linejoin:miter;stroke-miterlimit:4;stroke-dasharray:none;stroke-opacity:1" d="M 1095.6349,340.15873 C 1054.806,358.01587 1042.1517,374.68254 1018.6508,392.53968" id="path8813" sodipodi:nodetypes="cc"/>
      <path style="fill:#fcef3c;fill-opacity:1;fill-rule:evenodd;stroke:black;stroke-width:3;stroke-linecap:butt;stroke-linejoin:miter;stroke-miterlimit:4;stroke-dasharray:none;stroke-opacity:1" d="M 1107.1428,345.71428 C 1115.9854,341.55686 1126.3642,337.70672 1140.4761,334.60317" id="path8815" sodipodi:nodetypes="cc"/>
      <path style="fill:#fcef3c;fill-opacity:1;fill-rule:evenodd;stroke:black;stroke-width:3;stroke-linecap:butt;stroke-linejoin:miter;stroke-miterlimit:4;stroke-dasharray:none;stroke-opacity:1" d="M 1127.381,337.77778 C 1120.2661,349.66205 1112.9268,360.64889 1104.7619,368.33333" id="path8817" sodipodi:nodetypes="cc"/>
    </g>
  </g>
</svg>