<?xml version="1.0" encoding="UTF-8"?>
<svg width="100pt" version="1.1" xmlns="http://www.w3.org/2000/svg" height="100pt" viewBox="0 0 100 100" xmlns:xlink="http://www.w3.org/1999/xlink">
 <defs>
  <clipPath id="Clip0">
   <path d="M0 0 L42.6875 0 L42.6875 42.6875 L0 42.6875 L0 0 Z" transform="translate(54.6562, 2.65625)"/>
  </clipPath>
  <linearGradient id="Grad0" y1="40.6875" x1="0" y2="0" gradientUnits="userSpaceOnUse" x2="40.6875">
   <stop offset="11.8421%" stop-color="#200000" stop-opacity="1"/>
   <stop offset="61.0526%" stop-color="#ffffff" stop-opacity="1"/>
  </linearGradient>
 </defs>
 <g id="Fond de page">
  <path style="fill:#009ee0; fill-rule:evenodd;stroke:#161412; stroke-width:1; stroke-linecap:butt; stroke-linejoin:miter; stroke-dasharray:none;" d="M23.625 11.4375 C23.625 17.7545 18.3366 22.875 11.8125 22.875 C5.28864 22.875 0 17.7545 0 11.4375 C0 5.12074 5.28864 0 11.8125 0 C18.3366 0 23.625 5.12074 23.625 11.4375 Z" transform="translate(6.125, 69.625)"/>
  <path style="fill:#ff0000; fill-rule:evenodd;stroke:#161412; stroke-width:1; stroke-linecap:butt; stroke-linejoin:miter; stroke-dasharray:none;" d="M23.625 11.4375 C23.625 17.7545 18.3366 22.875 11.8125 22.875 C5.28864 22.875 0 17.7545 0 11.4375 C0 5.12074 5.28864 0 11.8125 0 C18.3366 0 23.625 5.12074 23.625 11.4375 Z" transform="translate(26.125, 15.625)"/>
  <path style="fill:#009ee0; fill-rule:evenodd;stroke:#161412; stroke-width:1; stroke-linecap:butt; stroke-linejoin:miter; stroke-dasharray:none;" d="M23.625 11.4375 C23.625 17.7545 18.3366 22.875 11.8125 22.875 C5.28864 22.875 0 17.7545 0 11.4375 C0 5.12074 5.28864 0 11.8125 0 C18.3366 0 23.625 5.12074 23.625 11.4375 Z" transform="translate(60.125, 51.625)"/>
  <path style="stroke:#161412; stroke-width:1; stroke-linecap:butt; stroke-linejoin:miter; stroke-dasharray:none;" d="M 0 0 L 32.4068 0" transform="translate(29.75, 77.125) rotate(338.978)"/>
  <path style="stroke:#161412; stroke-width:1; stroke-linecap:butt; stroke-linejoin:miter; stroke-dasharray:none;" d="M 0 0 L 26.9072 0" transform="translate(46, 35) rotate(48.0128)"/>
  <path style="stroke:#161412; stroke-width:1; stroke-linecap:butt; stroke-linejoin:miter; stroke-dasharray:none;" d="M 0 0 L 34.8641 0" transform="translate(22, 70.375) rotate(285.706)"/>
  <path style="stroke:#161412; stroke-width:1; stroke-linecap:butt; stroke-linejoin:miter; stroke-dasharray:none;" d="M 0 0 L 31.5753 0" transform="translate(28, 20.6875) rotate(169.046)"/>
  <path style="stroke:#161412; stroke-width:1; stroke-linecap:butt; stroke-linejoin:miter; stroke-dasharray:none;" d="M 0 0 L 26.1272 0" transform="translate(8.5625, 73.75) rotate(226.454)"/>
  <path style="stroke:#161412; stroke-width:1; stroke-linecap:butt; stroke-linejoin:miter; stroke-dasharray:none;" d="M 0 0 L 26.2017 0" transform="translate(74.375, 74.5) rotate(80.9421)"/>
  <g id="Copie de Groupe 3" clip-path="url(#Clip0)">
   <path style="fill:url(#Grad0); fill-rule:evenodd;stroke:#161412; stroke-width:2; stroke-linecap:butt; stroke-linejoin:miter; stroke-dasharray:none;" d="M40.6875 20.3438 C40.6875 31.5797 31.5797 40.6875 20.3438 40.6875 C9.10821 40.6875 0 31.5797 0 20.3438 C0 9.10821 9.10821 0 20.3438 0 C31.5797 0 40.6875 9.10821 40.6875 20.3438 Z" transform="translate(55.6562, 3.65625)"/>
   <path style="fill:#ffffff; fill-rule:evenodd;stroke:#161412; stroke-width:1px; stroke-linecap:butt; stroke-linejoin:miter; stroke-dasharray:none;" d="M0 12.4688 L5.53125 12.4688 L5.53125 0 L16.5938 0 L16.5938 12.4688 L22.125 12.4688 L11.0625 24.9375 L0 12.4688 Z" transform="translate(64.9375, 12.5312)"/>
  </g>
 </g>
</svg>
