<?xml version="1.0" encoding="UTF-8"?>
<svg width="100pt" version="1.1" xmlns="http://www.w3.org/2000/svg" height="100pt" viewBox="0 0 100 100" xmlns:xlink="http://www.w3.org/1999/xlink">
 <defs/>
 <g id="Fond de page">
  <path style="fill:#009ee0; fill-rule:evenodd;stroke:#161412; stroke-width:1; stroke-linecap:butt; stroke-linejoin:miter; stroke-dasharray:none;" d="M23.625 11.4375 C23.625 17.7545 18.3366 22.875 11.8125 22.875 C5.28864 22.875 0 17.7545 0 11.4375 C0 5.12074 5.28864 0 11.8125 0 C18.3366 0 23.625 5.12074 23.625 11.4375 Z" transform="translate(6.125, 69.625)"/>
  <path style="fill:#ff0000; fill-rule:evenodd;stroke:#161412; stroke-width:1; stroke-linecap:butt; stroke-linejoin:miter; stroke-dasharray:none;" d="M23.625 11.4375 C23.625 17.7545 18.3366 22.875 11.8125 22.875 C5.28864 22.875 0 17.7545 0 11.4375 C0 5.12074 5.28864 0 11.8125 0 C18.3366 0 23.625 5.12074 23.625 11.4375 Z" transform="translate(26.125, 15.625)"/>
  <path style="fill:#009ee0; fill-rule:evenodd;stroke:#161412; stroke-width:1; stroke-linecap:butt; stroke-linejoin:miter; stroke-dasharray:none;" d="M23.625 11.4375 C23.625 17.7545 18.3366 22.875 11.8125 22.875 C5.28864 22.875 0 17.7545 0 11.4375 C0 5.12074 5.28864 0 11.8125 0 C18.3366 0 23.625 5.12074 23.625 11.4375 Z" transform="translate(60.125, 51.625)"/>
  <path style="stroke:#161412; stroke-width:1; stroke-linecap:butt; stroke-linejoin:miter; stroke-dasharray:none;" d="M 0 0 L 32.4068 0" transform="translate(29.75, 77.125) rotate(338.978)"/>
  <path style="stroke:#161412; stroke-width:1; stroke-linecap:butt; stroke-linejoin:miter; stroke-dasharray:none;" d="M 0 0 L 26.9072 0" transform="translate(46, 35) rotate(48.0128)"/>
  <path style="stroke:#161412; stroke-width:1; stroke-linecap:butt; stroke-linejoin:miter; stroke-dasharray:none;" d="M 0 0 L 34.8641 0" transform="translate(22, 70.375) rotate(285.706)"/>
  <path style="stroke:#161412; stroke-width:1; stroke-linecap:butt; stroke-linejoin:miter; stroke-dasharray:none;" d="M 0 0 L 31.5753 0" transform="translate(28, 20.6875) rotate(169.046)"/>
  <path style="stroke:#161412; stroke-width:1; stroke-linecap:butt; stroke-linejoin:miter; stroke-dasharray:none;" d="M 0 0 L 26.1272 0" transform="translate(8.5625, 73.75) rotate(226.454)"/>
  <path style="stroke:#161412; stroke-width:1; stroke-linecap:butt; stroke-linejoin:miter; stroke-dasharray:none;" d="M 0 0 L 26.2017 0" transform="translate(74.375, 74.5) rotate(80.9421)"/>
  <path style="fill:#ffec00; fill-rule:evenodd; fill-opacity:0.2;stroke:#ffec00; stroke-width:3; stroke-linecap:butt; stroke-linejoin:miter; stroke-dasharray:none;" id="Ligne complexe2628" d="M44.25 0 L43.5 0.75 L42.75 0.75 L41.25 1.5 L40.5 2.25 L39 2.25 L38.25 2.25 L37.5 2.25 L37 2.75 L36 2.75 L35.25 2.75 L34.5 2.75 L33.75 2.75 L33 2.75 L32 2.75 L31.5 2.75 L30.75 2.75 L30 2.75 L29.25 2.75 L28.5 2.75 L27.75 2.75 L27 2.75 L26.25 2.75 L25.5 2.75 L24 2.75 L23.25 3.75 L22 3.75 L21 4.5 L20.25 4.5 L19.5 4.5 L18.75 4.5 L18 4.5 L17 5.25 L16.5 6 L15.75 6 L15 6.75 L14.25 7.75 L13.5 8.25 L12.75 9 L12 9.75 L12 10.5 L11.25 11.25 L10.5 12 L10.5 12.75 L9.75 13.5 L9.75 14.25 L9.75 15 L9 15.75 L9 16.5 L9 17.25 L8.25 17.75 L8.25 18.75 L8.25 19.5 L8.25 20.25 L7.5 21 L7 21.75 L7 22.75 L7 23.25 L7 24 L7 24.75 L7 25.5 L7 26.25 L7 27 L7 27.75 L7.5 28.5 L7.5 29.25 L7.5 30 L7.5 30.75 L8.25 31.5 L8.25 32.25 L9 32.75 L9 33.75 L9 34.5 L9 35.25 L9 36 L9 36.75 L9 37.75 L9 38.25 L9 39 L9 39.75 L9 40.5 L9 41.25 L9 42 L9 42.75 L8.25 44.25 L8.25 45 L7.5 45.75 L7 47.25 L6 47.75 L6 48.75 L5.25 49.5 L4.5 50.25 L3 51.75 L2 52.75 L1.5 53.25 L0.75 54 L0.75 54.75 L0.75 55.5 L0.75 56.25 L0.75 57 L0.75 57.75 L0.75 58.5 L0 59.25 L0 60 L0 60.75 L0 61.5 L0.75 62.25 L1.5 62.75 L1.5 63.75 L2 64.5 L2 65.25 L3 66.75 L3 67.75 L3 68.25 L3.75 69 L3.75 69.75 L3.75 70.5 L4.5 71.25 L5.25 72 L5.25 72.75 L6 73.5 L7 74.25 L7.5 75 L8.25 75.75 L9 76.5 L9.75 77.25 L10.5 77.75 L11.25 77.75 L12 77.75 L12.75 78.75 L13.5 78.75 L15 79.5 L15.75 79.5 L16.5 79.5 L17 79.5 L18 79.5 L18.75 79.5 L19.5 79.5 L20.25 80.25 L21 80.25 L22 80.25 L22.5 80.25 L23.25 80.25 L24.75 80.25 L25.5 80.25 L26.25 80.25 L27 80.25 L27.75 80.25 L28.5 80.25 L29.25 80.25 L30 80.25 L30.75 80.25 L31.5 80.25 L32 80.25 L33 80.25 L33.75 80.25 L34.5 79.5 L35.25 78.75 L36 78.75 L37 77.75 L37.5 77.25 L39 76.5 L39.75 75.75 L40.5 75 L41.25 74.25 L42 73.5 L42.75 72.75 L43.5 72.75 L44.25 72.75 L45 72 L45.75 72 L46.5 71.25 L47 71.25 L48 70.5 L48.75 69.75 L49.5 69 L50.25 69 L51 69 L52 69 L52.5 69 L53.25 69 L54 69 L54.75 69 L55.5 69 L57 69 L57.75 69 L58.5 69 L59.25 69 L60 69 L60.75 69 L61.5 69 L62 69 L63 69 L63.75 69 L64.5 69 L66 69 L67 69 L67.5 69 L68.25 69 L69 68.25 L69.75 67.75 L70.5 66.75 L71.25 66 L72 66 L72.75 65.25 L73.5 65.25 L74.25 64.5 L75 63.75 L75.75 62.75 L76.5 62.25 L77 61.5 L78.75 60.75 L79.5 60 L79.5 59.25 L79.5 58.5 L80.25 57.75 L80.25 57 L80.25 56.25 L80.25 55.5 L80.25 54.75 L80.25 54 L80.25 53.25 L80.25 52.75 L80.25 51.75 L80.25 51 L80.25 50.25 L80.25 49.5 L80.25 48.75 L80.25 47.75 L80.25 47.25 L79.5 46.5 L79.5 45.75 L79.5 45 L78.75 43.5 L78 42.75 L78 42 L78 41.25 L77 39.75 L77 39 L77 38.25 L77 37.75 L77 36.75 L77 36 L77 35.25 L77 34.5 L77 33.75 L77 32.75 L77 32.25 L78 30 L78 29.25 L78 28.5 L78.75 27.75 L78.75 27 L79.5 26.25 L80.25 24.75 L80.25 23.25 L80.25 21.75 L81 21 L81 20.25 L81 19.5 L81 18.75 L81 17.75 L82 17.25 L82 16.5 L82 15.75 L82 15 L82 14.25 L82 13.5 L82 12.75 L82 12 L82 11.25 L82 10.5 L81 9.75 L80.25 9 L79.5 7.75 L78.75 6.75 L78 6 L77 5.25 L75.75 4.5 L75 3.75 L74.25 3.75 L73.5 2.75 L72.75 2.75 L71.25 2.25 L70.5 1.5 L69 1.5 L68.25 1.5 L67.5 1.5 L67 0.75 L66 0.75 L65.25 0.75 L64.5 0.75 L63.75 0.75 L63 0.75 L62 0.75 L61.5 0.75 L60 0.75 L58.5 0.75 L57 0.75 L56.25 0.75 L55.5 0.75 L54.75 0.75 L53.25 0.75 L52.5 0.75 L51 0 L50.25 0 L49.5 0 L48.75 0 L48.75 0 Z" transform="translate(11, 9.25)"/>
  <path style="fill:#ffffff; fill-rule:evenodd;stroke:#161412; stroke-width:1; stroke-linecap:butt; stroke-linejoin:miter; stroke-dasharray:none;" d="M0 15.7258 L33.8397 0 L31.2866 11.0543 L60.02 11.0543 L60.02 20.3973 L31.2866 20.3973 L33.8397 31.4516 L0 15.7258 Z" transform="translate(61.1947, 34.268) rotate(-305)"/>
 </g>
</svg>
